<?xml version="1.0" encoding="UTF-8" standalone="no"?>
<!DOCTYPE svg PUBLIC "-//W3C//DTD SVG 1.1//EN"
 "http://www.w3.org/Graphics/SVG/1.1/DTD/svg11.dtd">
<!-- Generated by graphviz version 2.26.0 (20091210.2329)
 -->
<!-- Title: _anonymous_0 Pages: 1 -->
<svg width="2188pt" height="318pt"
 viewBox="0.00 0.00 2188.00 318.00" xmlns="http://www.w3.org/2000/svg" xmlns:xlink="http://www.w3.org/1999/xlink">
<g id="graph1" class="graph" transform="scale(1 1) rotate(0) translate(4 314)">
<title>_anonymous_0</title>
<polygon fill="white" stroke="white" points="-4,5 -4,-314 2185,-314 2185,5 -4,5"/>
<!-- &#45;1 -->
<g id="node1" class="node"><title>&#45;1</title>
<polygon fill="lightgray" stroke="black" points="24,-95.5 8.88178e-15,-95.5 0,-74.5 24,-74.5 24,-95.5"/>
<text text-anchor="middle" x="12" y="-83.4" font-family="Times Roman,serif" font-size="9.00">&#45;1</text>
</g>
<!-- 0 -->
<g id="node45" class="node"><title>0</title>
<ellipse fill="lightblue" stroke="black" cx="1062" cy="-15" rx="14.8492" ry="14.8492"/>
<text text-anchor="middle" x="1062" y="-13.4" font-family="Times Roman,serif" font-size="9.00">0</text>
</g>
<!-- &#45;1&#45;&gt;0 -->
<g id="edge2" class="edge"><title>&#45;1&#45;&gt;0</title>
<path fill="none" stroke="green" stroke-width="0.174911" d="M21.2449,-74.1273C24.5956,-70.9285 28.639,-67.8053 33,-66 128.327,-26.5385 887.673,-16.7812 1036.68,-15.2392"/>
<polygon fill="green" stroke="green" points="1036.73,-18.739 1046.7,-15.1386 1036.66,-11.7393 1036.73,-18.739"/>
</g>
<!-- &#45;2 -->
<g id="node2" class="node"><title>&#45;2</title>
<polygon fill="lightgray" stroke="black" points="66,-95.5 42,-95.5 42,-74.5 66,-74.5 66,-95.5"/>
<text text-anchor="middle" x="54" y="-83.4" font-family="Times Roman,serif" font-size="9.00">&#45;2</text>
</g>
<!-- &#45;2&#45;&gt;0 -->
<g id="edge4" class="edge"><title>&#45;2&#45;&gt;0</title>
<path fill="none" stroke="green" stroke-width="0.132146" stroke-dasharray="1,5" d="M65.5871,-74.3181C69.8173,-71.0492 74.8375,-67.8348 80,-66 172.497,-33.126 891.497,-18.155 1036.55,-15.4538"/>
<polygon fill="green" stroke="green" points="1036.76,-18.9506 1046.69,-15.2676 1036.63,-11.9518 1036.76,-18.9506"/>
</g>
<!-- &#45;3 -->
<g id="node3" class="node"><title>&#45;3</title>
<polygon fill="lightgray" stroke="black" points="169,-243.5 145,-243.5 145,-222.5 169,-222.5 169,-243.5"/>
<text text-anchor="middle" x="157" y="-231.4" font-family="Times Roman,serif" font-size="9.00">&#45;3</text>
</g>
<!-- &#45;3&#45;&gt;0 -->
<g id="edge6" class="edge"><title>&#45;3&#45;&gt;0</title>
<path fill="none" stroke="green" stroke-width="0.356383" stroke-dasharray="1,5" d="M152.074,-222.213C139.413,-192.688 109.54,-109.846 151,-66 182.291,-32.908 892.754,-18.1107 1036.7,-15.4471"/>
<polygon fill="green" stroke="green" points="1036.84,-18.9452 1046.78,-15.2635 1036.71,-11.9464 1036.84,-18.9452"/>
</g>
<!-- 57 -->
<g id="node49" class="node"><title>57</title>
<ellipse fill="white" stroke="black" cx="180" cy="-159" rx="17.8879" ry="18.3848"/>
<text text-anchor="middle" x="180" y="-157.4" font-family="Times Roman,serif" font-size="9.00">57</text>
</g>
<!-- &#45;3&#45;&gt;57 -->
<g id="edge100" class="edge"><title>&#45;3&#45;&gt;57</title>
<path fill="none" stroke="green" stroke-width="0.18492" d="M160.295,-222.398C163.216,-213 167.61,-198.863 171.508,-186.321"/>
<polygon fill="green" stroke="green" points="174.865,-187.315 174.49,-176.726 168.18,-185.237 174.865,-187.315"/>
</g>
<!-- &#45;4 -->
<g id="node4" class="node"><title>&#45;4</title>
<polygon fill="lightgray" stroke="black" points="352,-95.5 328,-95.5 328,-74.5 352,-74.5 352,-95.5"/>
<text text-anchor="middle" x="340" y="-83.4" font-family="Times Roman,serif" font-size="9.00">&#45;4</text>
</g>
<!-- &#45;4&#45;&gt;0 -->
<g id="edge8" class="edge"><title>&#45;4&#45;&gt;0</title>
<path fill="none" stroke="green" stroke-width="0.270122" d="M349.27,-74.1862C352.622,-70.9913 356.66,-67.8555 361,-66 424.109,-39.0173 917.756,-20.0699 1036.42,-15.8758"/>
<polygon fill="green" stroke="green" points="1036.83,-19.3636 1046.7,-15.5162 1036.59,-12.3679 1036.83,-19.3636"/>
</g>
<!-- &#45;5 -->
<g id="node5" class="node"><title>&#45;5</title>
<polygon fill="lightgray" stroke="black" points="446,-169.5 422,-169.5 422,-148.5 446,-148.5 446,-169.5"/>
<text text-anchor="middle" x="434" y="-157.4" font-family="Times Roman,serif" font-size="9.00">&#45;5</text>
</g>
<!-- &#45;5&#45;&gt;0 -->
<g id="edge10" class="edge"><title>&#45;5&#45;&gt;0</title>
<path fill="none" stroke="red" stroke-width="0.335877" stroke-dasharray="1,5" d="M432.534,-148.409C430.486,-128.82 429.347,-87.0152 453,-66 497.236,-26.6974 926.852,-17.1647 1036.58,-15.3633"/>
<polygon fill="red" stroke="red" points="1036.79,-18.8606 1046.73,-15.2041 1036.68,-11.8615 1036.79,-18.8606"/>
</g>
<!-- 66 -->
<g id="node46" class="node"><title>66</title>
<ellipse fill="white" stroke="black" cx="480" cy="-85" rx="17.8879" ry="18.3848"/>
<text text-anchor="middle" x="480" y="-83.4" font-family="Times Roman,serif" font-size="9.00">66</text>
</g>
<!-- &#45;5&#45;&gt;66 -->
<g id="edge106" class="edge"><title>&#45;5&#45;&gt;66</title>
<path fill="none" stroke="green" stroke-width="0.36094" d="M440.591,-148.398C446.888,-138.267 456.611,-122.626 464.823,-109.416"/>
<polygon fill="green" stroke="green" points="467.899,-111.096 470.206,-100.756 461.954,-107.401 467.899,-111.096"/>
</g>
<!-- 38 -->
<g id="node47" class="node"><title>38</title>
<ellipse fill="white" stroke="black" cx="388" cy="-85" rx="17.8879" ry="18.3848"/>
<text text-anchor="middle" x="388" y="-83.4" font-family="Times Roman,serif" font-size="9.00">38</text>
</g>
<!-- &#45;5&#45;&gt;38 -->
<g id="edge94" class="edge"><title>&#45;5&#45;&gt;38</title>
<path fill="none" stroke="green" stroke-width="0.107898" d="M427.409,-148.398C421.112,-138.267 411.389,-122.626 403.177,-109.416"/>
<polygon fill="green" stroke="green" points="406.046,-107.401 397.794,-100.756 400.101,-111.096 406.046,-107.401"/>
</g>
<!-- &#45;6 -->
<g id="node6" class="node"><title>&#45;6</title>
<polygon fill="lightgray" stroke="black" points="578,-95.5 554,-95.5 554,-74.5 578,-74.5 578,-95.5"/>
<text text-anchor="middle" x="566" y="-83.4" font-family="Times Roman,serif" font-size="9.00">&#45;6</text>
</g>
<!-- &#45;6&#45;&gt;0 -->
<g id="edge12" class="edge"><title>&#45;6&#45;&gt;0</title>
<path fill="none" stroke="green" stroke-width="0.312731" d="M575.308,-74.2732C578.663,-71.0841 582.693,-67.9298 587,-66 668.576,-29.4531 949.535,-18.294 1036.28,-15.6801"/>
<polygon fill="green" stroke="green" points="1036.64,-19.1713 1046.54,-15.3842 1036.44,-12.1742 1036.64,-19.1713"/>
</g>
<!-- &#45;7 -->
<g id="node7" class="node"><title>&#45;7</title>
<polygon fill="lightgray" stroke="black" points="187,-309.5 163,-309.5 163,-288.5 187,-288.5 187,-309.5"/>
<text text-anchor="middle" x="175" y="-297.4" font-family="Times Roman,serif" font-size="9.00">&#45;7</text>
</g>
<!-- &#45;7&#45;&gt;0 -->
<g id="edge14" class="edge"><title>&#45;7&#45;&gt;0</title>
<path fill="none" stroke="green" stroke-width="0.136045" d="M162.979,-288.299C153.949,-279.505 142.126,-266.217 136,-252 103.265,-176.027 71.3169,-125.297 129,-66 161.556,-32.5333 890.305,-18.0111 1036.57,-15.4283"/>
<polygon fill="green" stroke="green" points="1036.86,-18.924 1046.79,-15.2507 1036.73,-11.9251 1036.86,-18.924"/>
</g>
<!-- 29 -->
<g id="node50" class="node"><title>29</title>
<ellipse fill="white" stroke="black" cx="229" cy="-233" rx="17.8879" ry="18.3848"/>
<text text-anchor="middle" x="229" y="-231.4" font-family="Times Roman,serif" font-size="9.00">29</text>
</g>
<!-- &#45;7&#45;&gt;29 -->
<g id="edge98" class="edge"><title>&#45;7&#45;&gt;29</title>
<path fill="none" stroke="green" stroke-width="0.301414" d="M183.676,-288.396C190.898,-279.569 201.433,-266.693 210.528,-255.577"/>
<polygon fill="green" stroke="green" points="213.501,-257.471 217.124,-247.515 208.083,-253.038 213.501,-257.471"/>
</g>
<!-- &#45;8 -->
<g id="node8" class="node"><title>&#45;8</title>
<polygon fill="lightgray" stroke="black" points="620,-95.5 596,-95.5 596,-74.5 620,-74.5 620,-95.5"/>
<text text-anchor="middle" x="608" y="-83.4" font-family="Times Roman,serif" font-size="9.00">&#45;8</text>
</g>
<!-- &#45;8&#45;&gt;0 -->
<g id="edge16" class="edge"><title>&#45;8&#45;&gt;0</title>
<path fill="none" stroke="red" stroke-width="0.628259" d="M617.319,-74.2991C620.675,-71.1117 624.703,-67.9519 629,-66 702.556,-32.591 954.497,-19.438 1036.2,-15.9892"/>
<polygon fill="red" stroke="red" points="1036.71,-19.4712 1046.56,-15.5659 1036.43,-12.4771 1036.71,-19.4712"/>
</g>
<!-- &#45;9 -->
<g id="node9" class="node"><title>&#45;9</title>
<polygon fill="lightgray" stroke="black" points="662,-95.5 638,-95.5 638,-74.5 662,-74.5 662,-95.5"/>
<text text-anchor="middle" x="650" y="-83.4" font-family="Times Roman,serif" font-size="9.00">&#45;9</text>
</g>
<!-- &#45;9&#45;&gt;0 -->
<g id="edge18" class="edge"><title>&#45;9&#45;&gt;0</title>
<path fill="none" stroke="green" stroke-width="0.517695" d="M659.334,-74.3304C662.69,-71.1452 666.715,-67.9786 671,-66 736.754,-35.6388 960.929,-20.6256 1036.72,-16.3306"/>
<polygon fill="green" stroke="green" points="1037,-19.8207 1046.79,-15.7742 1036.61,-12.8314 1037,-19.8207"/>
</g>
<!-- &#45;10 -->
<g id="node10" class="node"><title>&#45;10</title>
<polygon fill="lightgray" stroke="black" points="708,-95.5 680,-95.5 680,-74.5 708,-74.5 708,-95.5"/>
<text text-anchor="middle" x="694" y="-83.4" font-family="Times Roman,serif" font-size="9.00">&#45;10</text>
</g>
<!-- &#45;10&#45;&gt;0 -->
<g id="edge20" class="edge"><title>&#45;10&#45;&gt;0</title>
<path fill="none" stroke="red" stroke-width="0.261766" d="M704.399,-74.3802C708.087,-71.1983 712.457,-68.0211 717,-66 774.629,-40.3606 966.981,-22.6735 1036.58,-16.9779"/>
<polygon fill="red" stroke="red" points="1036.98,-20.4579 1046.66,-16.1673 1036.41,-13.4804 1036.98,-20.4579"/>
</g>
<!-- &#45;11 -->
<g id="node11" class="node"><title>&#45;11</title>
<polygon fill="lightgray" stroke="black" points="754,-95.5 726,-95.5 726,-74.5 754,-74.5 754,-95.5"/>
<text text-anchor="middle" x="740" y="-83.4" font-family="Times Roman,serif" font-size="9.00">&#45;11</text>
</g>
<!-- &#45;11&#45;&gt;0 -->
<g id="edge22" class="edge"><title>&#45;11&#45;&gt;0</title>
<path fill="none" stroke="green" stroke-width="0.602282" d="M750.426,-74.4391C754.115,-71.2611 758.48,-68.0714 763,-66 811.999,-43.5459 973.825,-24.3914 1036.7,-17.6173"/>
<polygon fill="green" stroke="green" points="1037.34,-21.0696 1046.91,-16.533 1036.6,-14.1088 1037.34,-21.0696"/>
</g>
<!-- &#45;12 -->
<g id="node12" class="node"><title>&#45;12</title>
<polygon fill="lightgray" stroke="black" points="800,-95.5 772,-95.5 772,-74.5 800,-74.5 800,-95.5"/>
<text text-anchor="middle" x="786" y="-83.4" font-family="Times Roman,serif" font-size="9.00">&#45;12</text>
</g>
<!-- &#45;12&#45;&gt;0 -->
<g id="edge24" class="edge"><title>&#45;12&#45;&gt;0</title>
<path fill="none" stroke="green" stroke-width="0.307832" d="M796.928,-74.1215C800.518,-71.0801 804.698,-68.0497 809,-66 886.516,-29.0626 989.753,-18.8474 1036.76,-16.0457"/>
<polygon fill="green" stroke="green" points="1037.14,-19.5306 1046.94,-15.5049 1036.77,-12.5404 1037.14,-19.5306"/>
</g>
<!-- &#45;13 -->
<g id="node13" class="node"><title>&#45;13</title>
<polygon fill="lightgray" stroke="black" points="846,-95.5 818,-95.5 818,-74.5 846,-74.5 846,-95.5"/>
<text text-anchor="middle" x="832" y="-83.4" font-family="Times Roman,serif" font-size="9.00">&#45;13</text>
</g>
<!-- &#45;13&#45;&gt;0 -->
<g id="edge26" class="edge"><title>&#45;13&#45;&gt;0</title>
<path fill="none" stroke="red" stroke-width="0.419314" stroke-dasharray="1,5" d="M842.983,-74.2339C846.575,-71.197 850.743,-68.141 855,-66 916.031,-35.3041 996.663,-22.3598 1036.9,-17.5262"/>
<polygon fill="red" stroke="red" points="1037.37,-20.9965 1046.91,-16.3939 1036.58,-14.0409 1037.37,-20.9965"/>
</g>
<!-- &#45;14 -->
<g id="node14" class="node"><title>&#45;14</title>
<polygon fill="lightgray" stroke="black" points="892,-95.5 864,-95.5 864,-74.5 892,-74.5 892,-95.5"/>
<text text-anchor="middle" x="878" y="-83.4" font-family="Times Roman,serif" font-size="9.00">&#45;14</text>
</g>
<!-- &#45;14&#45;&gt;0 -->
<g id="edge28" class="edge"><title>&#45;14&#45;&gt;0</title>
<path fill="none" stroke="green" stroke-width="0.575448" d="M889.071,-74.4033C892.668,-71.3733 896.815,-68.2786 901,-66 945.882,-41.5617 1004.28,-26.7597 1036.98,-19.8008"/>
<polygon fill="green" stroke="green" points="1037.94,-23.1774 1047.03,-17.7388 1036.53,-16.3203 1037.94,-23.1774"/>
</g>
<!-- &#45;15 -->
<g id="node15" class="node"><title>&#45;15</title>
<polygon fill="lightgray" stroke="black" points="938,-95.5 910,-95.5 910,-74.5 938,-74.5 938,-95.5"/>
<text text-anchor="middle" x="924" y="-83.4" font-family="Times Roman,serif" font-size="9.00">&#45;15</text>
</g>
<!-- &#45;15&#45;&gt;0 -->
<g id="edge30" class="edge"><title>&#45;15&#45;&gt;0</title>
<path fill="none" stroke="green" stroke-width="0.196512" d="M935.707,-74.2895C939.195,-71.3919 943.124,-68.3976 947,-66 976.61,-47.6856 1013.94,-32.4045 1037.89,-23.4805"/>
<polygon fill="green" stroke="green" points="1039.38,-26.6623 1047.57,-19.9472 1036.98,-20.0862 1039.38,-26.6623"/>
</g>
<!-- &#45;16 -->
<g id="node16" class="node"><title>&#45;16</title>
<polygon fill="lightgray" stroke="black" points="984,-95.5 956,-95.5 956,-74.5 984,-74.5 984,-95.5"/>
<text text-anchor="middle" x="970" y="-83.4" font-family="Times Roman,serif" font-size="9.00">&#45;16</text>
</g>
<!-- &#45;16&#45;&gt;0 -->
<g id="edge32" class="edge"><title>&#45;16&#45;&gt;0</title>
<path fill="none" stroke="red" stroke-width="0.113204" d="M982.554,-74.423C985.918,-71.6461 989.572,-68.6794 993,-66 1008.98,-53.5076 1027.48,-39.8752 1041.3,-29.8502"/>
<polygon fill="red" stroke="red" points="1043.58,-32.5244 1049.64,-23.8315 1039.48,-26.85 1043.58,-32.5244"/>
</g>
<!-- &#45;17 -->
<g id="node17" class="node"><title>&#45;17</title>
<polygon fill="lightgray" stroke="black" points="1030,-95.5 1002,-95.5 1002,-74.5 1030,-74.5 1030,-95.5"/>
<text text-anchor="middle" x="1016" y="-83.4" font-family="Times Roman,serif" font-size="9.00">&#45;17</text>
</g>
<!-- &#45;17&#45;&gt;0 -->
<g id="edge34" class="edge"><title>&#45;17&#45;&gt;0</title>
<path fill="none" stroke="red" stroke-width="0.125493" d="M1022.99,-74.3685C1029.62,-64.2738 1039.78,-48.81 1048.07,-36.1953"/>
<polygon fill="red" stroke="red" points="1051.13,-37.9101 1053.7,-27.6309 1045.28,-34.0658 1051.13,-37.9101"/>
</g>
<!-- &#45;18 -->
<g id="node18" class="node"><title>&#45;18</title>
<polygon fill="lightgray" stroke="black" points="1076,-95.5 1048,-95.5 1048,-74.5 1076,-74.5 1076,-95.5"/>
<text text-anchor="middle" x="1062" y="-83.4" font-family="Times Roman,serif" font-size="9.00">&#45;18</text>
</g>
<!-- &#45;18&#45;&gt;0 -->
<g id="edge36" class="edge"><title>&#45;18&#45;&gt;0</title>
<path fill="none" stroke="green" stroke-width="0.192884" d="M1062,-74.3685C1062,-65.3495 1062,-52.0447 1062,-40.315"/>
<polygon fill="green" stroke="green" points="1065.5,-40.1539 1062,-30.1539 1058.5,-40.154 1065.5,-40.1539"/>
</g>
<!-- &#45;19 -->
<g id="node19" class="node"><title>&#45;19</title>
<polygon fill="lightgray" stroke="black" points="1122,-95.5 1094,-95.5 1094,-74.5 1122,-74.5 1122,-95.5"/>
<text text-anchor="middle" x="1108" y="-83.4" font-family="Times Roman,serif" font-size="9.00">&#45;19</text>
</g>
<!-- &#45;19&#45;&gt;0 -->
<g id="edge38" class="edge"><title>&#45;19&#45;&gt;0</title>
<path fill="none" stroke="red" stroke-width="0.38063" d="M1101.01,-74.3685C1094.38,-64.2738 1084.22,-48.81 1075.93,-36.1953"/>
<polygon fill="red" stroke="red" points="1078.72,-34.0658 1070.3,-27.6309 1072.87,-37.9101 1078.72,-34.0658"/>
</g>
<!-- &#45;20 -->
<g id="node20" class="node"><title>&#45;20</title>
<polygon fill="lightgray" stroke="black" points="1168,-95.5 1140,-95.5 1140,-74.5 1168,-74.5 1168,-95.5"/>
<text text-anchor="middle" x="1154" y="-83.4" font-family="Times Roman,serif" font-size="9.00">&#45;20</text>
</g>
<!-- &#45;20&#45;&gt;0 -->
<g id="edge40" class="edge"><title>&#45;20&#45;&gt;0</title>
<path fill="none" stroke="green" stroke-width="0.318573" d="M1141.45,-74.423C1138.08,-71.6461 1134.43,-68.6794 1131,-66 1115.02,-53.5076 1096.52,-39.8752 1082.7,-29.8502"/>
<polygon fill="green" stroke="green" points="1084.52,-26.85 1074.36,-23.8315 1080.42,-32.5244 1084.52,-26.85"/>
</g>
<!-- &#45;21 -->
<g id="node21" class="node"><title>&#45;21</title>
<polygon fill="lightgray" stroke="black" points="1214,-95.5 1186,-95.5 1186,-74.5 1214,-74.5 1214,-95.5"/>
<text text-anchor="middle" x="1200" y="-83.4" font-family="Times Roman,serif" font-size="9.00">&#45;21</text>
</g>
<!-- &#45;21&#45;&gt;0 -->
<g id="edge42" class="edge"><title>&#45;21&#45;&gt;0</title>
<path fill="none" stroke="red" stroke-width="0.28447" d="M1188.29,-74.2895C1184.81,-71.3919 1180.88,-68.3976 1177,-66 1147.39,-47.6856 1110.06,-32.4045 1086.11,-23.4805"/>
<polygon fill="red" stroke="red" points="1087.02,-20.0862 1076.43,-19.9472 1084.62,-26.6623 1087.02,-20.0862"/>
</g>
<!-- &#45;22 -->
<g id="node22" class="node"><title>&#45;22</title>
<polygon fill="lightgray" stroke="black" points="1260,-95.5 1232,-95.5 1232,-74.5 1260,-74.5 1260,-95.5"/>
<text text-anchor="middle" x="1246" y="-83.4" font-family="Times Roman,serif" font-size="9.00">&#45;22</text>
</g>
<!-- &#45;22&#45;&gt;0 -->
<g id="edge44" class="edge"><title>&#45;22&#45;&gt;0</title>
<path fill="none" stroke="red" stroke-width="0.268658" d="M1234.93,-74.4033C1231.33,-71.3733 1227.18,-68.2786 1223,-66 1178.12,-41.5617 1119.72,-26.7597 1087.02,-19.8008"/>
<polygon fill="red" stroke="red" points="1087.47,-16.3203 1076.97,-17.7388 1086.06,-23.1774 1087.47,-16.3203"/>
</g>
<!-- &#45;23 -->
<g id="node23" class="node"><title>&#45;23</title>
<polygon fill="lightgray" stroke="black" points="517,-169.5 489,-169.5 489,-148.5 517,-148.5 517,-169.5"/>
<text text-anchor="middle" x="503" y="-157.4" font-family="Times Roman,serif" font-size="9.00">&#45;23</text>
</g>
<!-- &#45;23&#45;&gt;0 -->
<g id="edge46" class="edge"><title>&#45;23&#45;&gt;0</title>
<path fill="none" stroke="red" stroke-width="0.417749" d="M504.332,-148.497C507.456,-128.671 517.221,-85.9352 545,-66 585.306,-37.0751 938.218,-20.1977 1036.62,-16.025"/>
<polygon fill="red" stroke="red" points="1036.99,-19.5129 1046.83,-15.5992 1036.7,-12.5189 1036.99,-19.5129"/>
</g>
<!-- &#45;23&#45;&gt;66 -->
<g id="edge110" class="edge"><title>&#45;23&#45;&gt;66</title>
<path fill="none" stroke="green" stroke-width="0.22421" d="M499.705,-148.398C496.784,-139 492.39,-124.863 488.492,-112.321"/>
<polygon fill="green" stroke="green" points="491.82,-111.237 485.51,-102.726 485.135,-113.315 491.82,-111.237"/>
</g>
<!-- &#45;24 -->
<g id="node24" class="node"><title>&#45;24</title>
<polygon fill="lightgray" stroke="black" points="1306,-95.5 1278,-95.5 1278,-74.5 1306,-74.5 1306,-95.5"/>
<text text-anchor="middle" x="1292" y="-83.4" font-family="Times Roman,serif" font-size="9.00">&#45;24</text>
</g>
<!-- &#45;24&#45;&gt;0 -->
<g id="edge48" class="edge"><title>&#45;24&#45;&gt;0</title>
<path fill="none" stroke="green" stroke-width="0.276191" d="M1281.02,-74.2339C1277.42,-71.197 1273.26,-68.141 1269,-66 1207.97,-35.3041 1127.34,-22.3598 1087.1,-17.5262"/>
<polygon fill="green" stroke="green" points="1087.42,-14.0409 1077.09,-16.3939 1086.63,-20.9965 1087.42,-14.0409"/>
</g>
<!-- &#45;25 -->
<g id="node25" class="node"><title>&#45;25</title>
<polygon fill="lightgray" stroke="black" points="1352,-95.5 1324,-95.5 1324,-74.5 1352,-74.5 1352,-95.5"/>
<text text-anchor="middle" x="1338" y="-83.4" font-family="Times Roman,serif" font-size="9.00">&#45;25</text>
</g>
<!-- &#45;25&#45;&gt;0 -->
<g id="edge50" class="edge"><title>&#45;25&#45;&gt;0</title>
<path fill="none" stroke="green" stroke-width="0.135727" d="M1327.07,-74.1215C1323.48,-71.0801 1319.3,-68.0497 1315,-66 1237.48,-29.0626 1134.25,-18.8474 1087.24,-16.0457"/>
<polygon fill="green" stroke="green" points="1087.23,-12.5404 1077.06,-15.5049 1086.86,-19.5306 1087.23,-12.5404"/>
</g>
<!-- &#45;26 -->
<g id="node26" class="node"><title>&#45;26</title>
<polygon fill="lightgray" stroke="black" points="1398,-95.5 1370,-95.5 1370,-74.5 1398,-74.5 1398,-95.5"/>
<text text-anchor="middle" x="1384" y="-83.4" font-family="Times Roman,serif" font-size="9.00">&#45;26</text>
</g>
<!-- &#45;26&#45;&gt;0 -->
<g id="edge52" class="edge"><title>&#45;26&#45;&gt;0</title>
<path fill="none" stroke="green" stroke-width="0.539936" d="M1373.57,-74.4391C1369.88,-71.2611 1365.52,-68.0714 1361,-66 1312,-43.5459 1150.18,-24.3914 1087.3,-17.6173"/>
<polygon fill="green" stroke="green" points="1087.4,-14.1088 1077.09,-16.533 1086.66,-21.0696 1087.4,-14.1088"/>
</g>
<!-- &#45;27 -->
<g id="node27" class="node"><title>&#45;27</title>
<polygon fill="lightgray" stroke="black" points="1444,-95.5 1416,-95.5 1416,-74.5 1444,-74.5 1444,-95.5"/>
<text text-anchor="middle" x="1430" y="-83.4" font-family="Times Roman,serif" font-size="9.00">&#45;27</text>
</g>
<!-- &#45;27&#45;&gt;0 -->
<g id="edge54" class="edge"><title>&#45;27&#45;&gt;0</title>
<path fill="none" stroke="green" stroke-width="0.195911" d="M1419.6,-74.3802C1415.91,-71.1983 1411.54,-68.0211 1407,-66 1349.37,-40.3606 1157.02,-22.6735 1087.42,-16.9779"/>
<polygon fill="green" stroke="green" points="1087.59,-13.4804 1077.34,-16.1673 1087.02,-20.4579 1087.59,-13.4804"/>
</g>
<!-- &#45;28 -->
<g id="node28" class="node"><title>&#45;28</title>
<polygon fill="lightgray" stroke="black" points="1490,-95.5 1462,-95.5 1462,-74.5 1490,-74.5 1490,-95.5"/>
<text text-anchor="middle" x="1476" y="-83.4" font-family="Times Roman,serif" font-size="9.00">&#45;28</text>
</g>
<!-- &#45;28&#45;&gt;0 -->
<g id="edge56" class="edge"><title>&#45;28&#45;&gt;0</title>
<path fill="none" stroke="green" stroke-width="0.14716" d="M1465.62,-74.3347C1461.93,-71.1497 1457.56,-67.9823 1453,-66 1386.58,-37.1256 1162.84,-21.1414 1087.22,-16.4648"/>
<polygon fill="green" stroke="green" points="1087.36,-12.9674 1077.17,-15.8567 1086.94,-19.9546 1087.36,-12.9674"/>
</g>
<!-- &#45;29 -->
<g id="node29" class="node"><title>&#45;29</title>
<polygon fill="lightgray" stroke="black" points="278,-309.5 250,-309.5 250,-288.5 278,-288.5 278,-309.5"/>
<text text-anchor="middle" x="264" y="-297.4" font-family="Times Roman,serif" font-size="9.00">&#45;29</text>
</g>
<!-- &#45;29&#45;&gt;0 -->
<g id="edge58" class="edge"><title>&#45;29&#45;&gt;0</title>
<path fill="none" stroke="red" stroke-width="0.13921" d="M262.653,-288.488C258.53,-251.198 250.236,-124.362 319,-66 346.959,-42.2699 909.05,-20.5403 1036.47,-15.9072"/>
<polygon fill="red" stroke="red" points="1036.92,-19.3931 1046.79,-15.5348 1036.67,-12.3977 1036.92,-19.3931"/>
</g>
<!-- &#45;29&#45;&gt;29 -->
<g id="edge90" class="edge"><title>&#45;29&#45;&gt;29</title>
<path fill="none" stroke="green" stroke-width="0.176153" stroke-dasharray="1,5" d="M258.377,-288.396C254.086,-280.305 247.992,-268.814 242.466,-258.393"/>
<polygon fill="green" stroke="green" points="245.396,-256.447 237.619,-249.252 239.212,-259.727 245.396,-256.447"/>
</g>
<!-- &#45;30 -->
<g id="node30" class="node"><title>&#45;30</title>
<polygon fill="lightgray" stroke="black" points="1536,-95.5 1508,-95.5 1508,-74.5 1536,-74.5 1536,-95.5"/>
<text text-anchor="middle" x="1522" y="-83.4" font-family="Times Roman,serif" font-size="9.00">&#45;30</text>
</g>
<!-- &#45;30&#45;&gt;0 -->
<g id="edge60" class="edge"><title>&#45;30&#45;&gt;0</title>
<path fill="none" stroke="red" stroke-width="0.465171" d="M1511.64,-74.2985C1507.95,-71.1111 1503.57,-67.9514 1499,-66 1423.85,-33.9331 1169.11,-19.8448 1087.43,-16.0809"/>
<polygon fill="red" stroke="red" points="1087.24,-12.5688 1077.09,-15.6176 1086.92,-19.5618 1087.24,-12.5688"/>
</g>
<!-- &#45;31 -->
<g id="node31" class="node"><title>&#45;31</title>
<polygon fill="lightgray" stroke="black" points="1582,-95.5 1554,-95.5 1554,-74.5 1582,-74.5 1582,-95.5"/>
<text text-anchor="middle" x="1568" y="-83.4" font-family="Times Roman,serif" font-size="9.00">&#45;31</text>
</g>
<!-- &#45;31&#45;&gt;0 -->
<g id="edge62" class="edge"><title>&#45;31&#45;&gt;0</title>
<path fill="none" stroke="red" stroke-width="0.318969" d="M1557.65,-74.2691C1553.96,-71.0797 1549.58,-67.9263 1545,-66 1460.95,-30.6789 1174.24,-18.6394 1087.24,-15.7522"/>
<polygon fill="red" stroke="red" points="1087.31,-12.2527 1077.2,-15.4308 1087.08,-19.2491 1087.31,-12.2527"/>
</g>
<!-- &#45;32 -->
<g id="node32" class="node"><title>&#45;32</title>
<polygon fill="lightgray" stroke="black" points="1628,-95.5 1600,-95.5 1600,-74.5 1628,-74.5 1628,-95.5"/>
<text text-anchor="middle" x="1614" y="-83.4" font-family="Times Roman,serif" font-size="9.00">&#45;32</text>
</g>
<!-- &#45;32&#45;&gt;0 -->
<g id="edge64" class="edge"><title>&#45;32&#45;&gt;0</title>
<path fill="none" stroke="red" stroke-width="0.11924" d="M1603.66,-74.2446C1599.98,-71.0537 1595.59,-67.9054 1591,-66 1498.05,-27.4362 1179.43,-17.5632 1087.2,-15.4862"/>
<polygon fill="red" stroke="red" points="1087.18,-11.985 1077.1,-15.2701 1087.03,-18.9834 1087.18,-11.985"/>
</g>
<!-- &#45;33 -->
<g id="node33" class="node"><title>&#45;33</title>
<polygon fill="lightgray" stroke="black" points="1674,-95.5 1646,-95.5 1646,-74.5 1674,-74.5 1674,-95.5"/>
<text text-anchor="middle" x="1660" y="-83.4" font-family="Times Roman,serif" font-size="9.00">&#45;33</text>
</g>
<!-- &#45;33&#45;&gt;0 -->
<g id="edge66" class="edge"><title>&#45;33&#45;&gt;0</title>
<path fill="none" stroke="red" stroke-width="0.201562" d="M1649.67,-74.224C1645.98,-71.0317 1641.6,-67.8878 1637,-66 1535.12,-24.1854 1184.37,-16.5783 1087.16,-15.2627"/>
<polygon fill="red" stroke="red" points="1087.12,-11.7621 1077.07,-15.1371 1087.03,-18.7615 1087.12,-11.7621"/>
</g>
<!-- &#45;34 -->
<g id="node34" class="node"><title>&#45;34</title>
<polygon fill="lightgray" stroke="black" points="1720,-95.5 1692,-95.5 1692,-74.5 1720,-74.5 1720,-95.5"/>
<text text-anchor="middle" x="1706" y="-83.4" font-family="Times Roman,serif" font-size="9.00">&#45;34</text>
</g>
<!-- &#45;34&#45;&gt;0 -->
<g id="edge68" class="edge"><title>&#45;34&#45;&gt;0</title>
<path fill="none" stroke="red" stroke-width="0.363608" d="M1695.67,-74.2064C1691.99,-71.0129 1687.61,-67.8728 1683,-66 1627.11,-43.2751 1197.04,-21.4272 1087.38,-16.1853"/>
<polygon fill="red" stroke="red" points="1087.4,-12.6823 1077.25,-15.7046 1087.07,-19.6744 1087.4,-12.6823"/>
</g>
<!-- &#45;35 -->
<g id="node35" class="node"><title>&#45;35</title>
<polygon fill="lightgray" stroke="black" points="1766,-95.5 1738,-95.5 1738,-74.5 1766,-74.5 1766,-95.5"/>
<text text-anchor="middle" x="1752" y="-83.4" font-family="Times Roman,serif" font-size="9.00">&#45;35</text>
</g>
<!-- &#45;35&#45;&gt;0 -->
<g id="edge70" class="edge"><title>&#45;35&#45;&gt;0</title>
<path fill="none" stroke="green" stroke-width="0.192023" d="M1741.68,-74.1912C1738,-70.9967 1733.61,-67.8599 1729,-66 1668.61,-41.6421 1202.08,-20.819 1087.4,-16.033"/>
<polygon fill="green" stroke="green" points="1087.28,-12.525 1077.14,-15.6087 1086.99,-19.519 1087.28,-12.525"/>
</g>
<!-- &#45;36 -->
<g id="node36" class="node"><title>&#45;36</title>
<polygon fill="lightgray" stroke="black" points="1812,-95.5 1784,-95.5 1784,-74.5 1812,-74.5 1812,-95.5"/>
<text text-anchor="middle" x="1798" y="-83.4" font-family="Times Roman,serif" font-size="9.00">&#45;36</text>
</g>
<!-- &#45;36&#45;&gt;0 -->
<g id="edge72" class="edge"><title>&#45;36&#45;&gt;0</title>
<path fill="none" stroke="green" stroke-width="0.268006" d="M1787.69,-74.178C1784,-70.9826 1779.62,-67.8485 1775,-66 1710.06,-39.9939 1206.47,-20.2374 1087.25,-15.8939"/>
<polygon fill="green" stroke="green" points="1087.35,-12.3954 1077.23,-15.5324 1087.1,-19.3908 1087.35,-12.3954"/>
</g>
<!-- &#45;37 -->
<g id="node37" class="node"><title>&#45;37</title>
<polygon fill="lightgray" stroke="black" points="1858,-95.5 1830,-95.5 1830,-74.5 1858,-74.5 1858,-95.5"/>
<text text-anchor="middle" x="1844" y="-83.4" font-family="Times Roman,serif" font-size="9.00">&#45;37</text>
</g>
<!-- &#45;37&#45;&gt;0 -->
<g id="edge74" class="edge"><title>&#45;37&#45;&gt;0</title>
<path fill="none" stroke="green" stroke-width="0.191399" d="M1833.69,-74.1663C1830.01,-70.9701 1825.62,-67.8386 1821,-66 1751.54,-38.3569 1211.23,-19.7172 1087.28,-15.7783"/>
<polygon fill="green" stroke="green" points="1087.33,-12.2781 1077.22,-15.462 1087.11,-19.2746 1087.33,-12.2781"/>
</g>
<!-- &#45;38 -->
<g id="node38" class="node"><title>&#45;38</title>
<polygon fill="lightgray" stroke="black" points="1904,-95.5 1876,-95.5 1876,-74.5 1904,-74.5 1904,-95.5"/>
<text text-anchor="middle" x="1890" y="-83.4" font-family="Times Roman,serif" font-size="9.00">&#45;38</text>
</g>
<!-- &#45;38&#45;&gt;0 -->
<g id="edge76" class="edge"><title>&#45;38&#45;&gt;0</title>
<path fill="none" stroke="red" stroke-width="0.476751" d="M1879.7,-74.156C1876.01,-70.9591 1871.62,-67.8298 1867,-66 1792.98,-36.7065 1215.42,-19.2169 1087.17,-15.6717"/>
<polygon fill="red" stroke="red" points="1087.22,-12.1717 1077.13,-15.3973 1087.03,-19.1691 1087.22,-12.1717"/>
</g>
<!-- &#45;39 -->
<g id="node39" class="node"><title>&#45;39</title>
<polygon fill="lightgray" stroke="black" points="1950,-95.5 1922,-95.5 1922,-74.5 1950,-74.5 1950,-95.5"/>
<text text-anchor="middle" x="1936" y="-83.4" font-family="Times Roman,serif" font-size="9.00">&#45;39</text>
</g>
<!-- &#45;39&#45;&gt;0 -->
<g id="edge78" class="edge"><title>&#45;39&#45;&gt;0</title>
<path fill="none" stroke="green" stroke-width="0.299235" d="M1925.7,-74.1467C1922.02,-70.9492 1917.63,-67.8219 1913,-66 1834.47,-35.0757 1220.33,-18.7715 1087.34,-15.5838"/>
<polygon fill="green" stroke="green" points="1087.37,-12.0835 1077.29,-15.346 1087.21,-19.0816 1087.37,-12.0835"/>
</g>
<!-- &#45;40 -->
<g id="node40" class="node"><title>&#45;40</title>
<polygon fill="lightgray" stroke="black" points="1996,-95.5 1968,-95.5 1968,-74.5 1996,-74.5 1996,-95.5"/>
<text text-anchor="middle" x="1982" y="-83.4" font-family="Times Roman,serif" font-size="9.00">&#45;40</text>
</g>
<!-- &#45;40&#45;&gt;0 -->
<g id="edge80" class="edge"><title>&#45;40&#45;&gt;0</title>
<path fill="none" stroke="green" stroke-width="0.16808" d="M1971.7,-74.1384C1968.02,-70.9403 1963.63,-67.8148 1959,-66 1875.93,-33.4329 1224.74,-18.3395 1087.38,-15.5014"/>
<polygon fill="green" stroke="green" points="1087.11,-11.9952 1077.04,-15.2909 1086.97,-18.9937 1087.11,-11.9952"/>
</g>
<!-- &#45;41 -->
<g id="node41" class="node"><title>&#45;41</title>
<polygon fill="lightgray" stroke="black" points="2042,-95.5 2014,-95.5 2014,-74.5 2042,-74.5 2042,-95.5"/>
<text text-anchor="middle" x="2028" y="-83.4" font-family="Times Roman,serif" font-size="9.00">&#45;41</text>
</g>
<!-- &#45;41&#45;&gt;0 -->
<g id="edge82" class="edge"><title>&#45;41&#45;&gt;0</title>
<path fill="none" stroke="red" stroke-width="0.429739" d="M2017.71,-74.1309C2014.02,-70.9323 2009.63,-67.8084 2005,-66 1917.36,-31.782 1228.78,-17.9248 1087.34,-15.4254"/>
<polygon fill="red" stroke="red" points="1087.14,-11.9214 1077.08,-15.2471 1087.02,-18.9203 1087.14,-11.9214"/>
</g>
<!-- &#45;42 -->
<g id="node42" class="node"><title>&#45;42</title>
<polygon fill="lightgray" stroke="black" points="2088,-95.5 2060,-95.5 2060,-74.5 2088,-74.5 2088,-95.5"/>
<text text-anchor="middle" x="2074" y="-83.4" font-family="Times Roman,serif" font-size="9.00">&#45;42</text>
</g>
<!-- &#45;42&#45;&gt;0 -->
<g id="edge84" class="edge"><title>&#45;42&#45;&gt;0</title>
<path fill="none" stroke="green" stroke-width="0.406636" d="M2063.71,-74.1241C2060.03,-70.9251 2055.63,-67.8026 2051,-66 1958.77,-30.121 1232.39,-17.5258 1087.2,-15.3551"/>
<polygon fill="green" stroke="green" points="1087.11,-11.8535 1077.06,-15.2065 1087.01,-18.8527 1087.11,-11.8535"/>
</g>
<!-- &#45;43 -->
<g id="node43" class="node"><title>&#45;43</title>
<polygon fill="lightgray" stroke="black" points="2134,-95.5 2106,-95.5 2106,-74.5 2134,-74.5 2134,-95.5"/>
<text text-anchor="middle" x="2120" y="-83.4" font-family="Times Roman,serif" font-size="9.00">&#45;43</text>
</g>
<!-- &#45;43&#45;&gt;0 -->
<g id="edge86" class="edge"><title>&#45;43&#45;&gt;0</title>
<path fill="none" stroke="green" stroke-width="0.109394" d="M2109.71,-74.1179C2106.03,-70.9185 2101.64,-67.7973 2097,-66 2000.24,-28.4897 1237.17,-17.1665 1087.44,-15.2963"/>
<polygon fill="green" stroke="green" points="1087.42,-11.7958 1077.37,-15.1734 1087.33,-18.7953 1087.42,-11.7958"/>
</g>
<!-- &#45;44 -->
<g id="node44" class="node"><title>&#45;44</title>
<polygon fill="lightgray" stroke="black" points="2180,-95.5 2152,-95.5 2152,-74.5 2180,-74.5 2180,-95.5"/>
<text text-anchor="middle" x="2166" y="-83.4" font-family="Times Roman,serif" font-size="9.00">&#45;44</text>
</g>
<!-- &#45;44&#45;&gt;0 -->
<g id="edge88" class="edge"><title>&#45;44&#45;&gt;0</title>
<path fill="none" stroke="green" stroke-width="0.22582" d="M2155.71,-74.1122C2152.03,-70.9124 2147.64,-67.7924 2143,-66 2041.7,-26.8497 1241.58,-16.8165 1087.59,-15.2407"/>
<polygon fill="green" stroke="green" points="1087.3,-11.7377 1077.26,-15.1379 1087.23,-18.7373 1087.3,-11.7377"/>
</g>
<!-- 66&#45;&gt;0 -->
<g id="edge108" class="edge"><title>66&#45;&gt;0</title>
<path fill="none" stroke="red" stroke-width="0.164799" d="M494.962,-74.2577C500.126,-71.0676 506.101,-67.9166 512,-66 611.792,-33.578 942.875,-19.3192 1036.9,-15.8625"/>
<polygon fill="red" stroke="red" points="1037.06,-19.3593 1046.93,-15.5023 1036.81,-12.3638 1037.06,-19.3593"/>
</g>
<!-- 38&#45;&gt;0 -->
<g id="edge96" class="edge"><title>38&#45;&gt;0</title>
<path fill="none" stroke="red" stroke-width="0.343356" d="M402.947,-74.2121C408.111,-71.0189 414.088,-67.8776 420,-66 538.111,-28.4856 933.046,-17.6996 1036.84,-15.4815"/>
<polygon fill="red" stroke="red" points="1037.07,-18.9776 1047,-15.2723 1036.93,-11.979 1037.07,-18.9776"/>
</g>
<!-- 79 -->
<g id="node48" class="node"><title>79</title>
<ellipse fill="white" stroke="black" cx="178" cy="-85" rx="17.8879" ry="18.3848"/>
<text text-anchor="middle" x="178" y="-83.4" font-family="Times Roman,serif" font-size="9.00">79</text>
</g>
<!-- 79&#45;&gt;0 -->
<g id="edge114" class="edge"><title>79&#45;&gt;0</title>
<path fill="none" stroke="red" stroke-width="0.452738" d="M192.926,-74.1445C198.088,-70.9468 204.07,-67.8199 210,-66 290.777,-41.2074 903.953,-20.1086 1036.7,-15.8024"/>
<polygon fill="red" stroke="red" points="1036.86,-19.2995 1046.74,-15.4794 1036.63,-12.3031 1036.86,-19.2995"/>
</g>
<!-- 57&#45;&gt;0 -->
<g id="edge102" class="edge"><title>57&#45;&gt;0</title>
<path fill="none" stroke="red" stroke-width="0.375604" stroke-dasharray="1,5" d="M187.065,-141.633C197.03,-119.672 217.475,-82.7161 248,-66 318.671,-27.2994 907.173,-17.1004 1036.81,-15.3146"/>
<polygon fill="red" stroke="red" points="1036.99,-18.8125 1046.95,-15.1794 1036.9,-11.8131 1036.99,-18.8125"/>
</g>
<!-- 57&#45;&gt;79 -->
<g id="edge112" class="edge"><title>57&#45;&gt;79</title>
<path fill="none" stroke="green" stroke-width="0.171964" d="M179.495,-140.327C179.277,-132.264 179.018,-122.648 178.776,-113.711"/>
<polygon fill="green" stroke="green" points="182.274,-113.569 178.505,-103.667 175.276,-113.758 182.274,-113.569"/>
</g>
<!-- 29&#45;&gt;0 -->
<g id="edge92" class="edge"><title>29&#45;&gt;0</title>
<path fill="none" stroke="red" stroke-width="0.552091" d="M229.119,-214.445C230.458,-179.014 238.944,-102.052 286,-66 316.493,-42.6379 906.223,-20.5017 1036.62,-15.8803"/>
<polygon fill="red" stroke="red" points="1036.96,-19.3707 1046.83,-15.5212 1036.71,-12.3751 1036.96,-19.3707"/>
</g>
<!-- 29&#45;&gt;57 -->
<g id="edge104" class="edge"><title>29&#45;&gt;57</title>
<path fill="none" stroke="green" stroke-width="0.407946" d="M218.847,-217.667C212.211,-207.646 203.408,-194.35 195.859,-182.951"/>
<polygon fill="green" stroke="green" points="198.579,-180.719 190.14,-174.313 192.743,-184.583 198.579,-180.719"/>
</g>
</g>
</svg>
